<?xml version="1.0" encoding="utf-8"?>
<!-- Generator: Adobe Illustrator 16.0.0, SVG Export Plug-In . SVG Version: 6.00 Build 0)  -->
<!DOCTYPE svg PUBLIC "-//W3C//DTD SVG 1.1//EN" "http://www.w3.org/Graphics/SVG/1.1/DTD/svg11.dtd">
<svg version="1.1" id="Layer_1" xmlns="http://www.w3.org/2000/svg" xmlns:xlink="http://www.w3.org/1999/xlink" x="0px" y="0px"
	 width="777.454px" height="268.013px" viewBox="0 -116.988 777.454 268.013" enable-background="new 0 -116.988 777.454 268.013"
	 xml:space="preserve">
<g>
	<path fill="#FFFFFF" d="M8.798,50.212l-6.025,2.353l1.665,33.831l4.361-1.579L8.798,50.212L8.798,50.212z M35.025,78.876h-1.578
		c-1.417,0-2.574-0.412-3.473-1.238c-0.765-0.711-1.836-2.199-3.213-4.472l-4.563,4.907c2.065,2.813,3.098,4.781,3.098,5.911
		c0,2.026-2.036,4.495-6.111,7.403c-3.022,2.159-5.968,3.853-8.837,5.078l4.878,3.355c3.691-1.435,6.848-3.385,9.469-5.854
		c3.156-2.965,4.878-6.142,5.165-9.526c0.689,0.766,1.789,1.147,3.301,1.147h1.864V78.876L35.025,78.876z M39.042,51.617
		l-0.774,3.156c2.734-1.264,7.546-3.031,14.432-5.31c2.392-0.802,5.625-1.835,9.699-3.097L62.8,43.04
		C50.481,47.114,42.562,49.973,39.042,51.617z M37.865,58.197c-0.498,0.251-0.975,1.158-1.434,2.729
		c-0.382,1.283-0.593,2.348-0.631,3.188c0.403,0.958,2.535,2.978,6.399,6.061c3.482,2.776,5.222,4.863,5.222,6.26
		c0,1.033-0.938,1.733-2.812,2.099c-1.187,0.229-3.175,0.343-5.969,0.343h-5.135v6.715h4.906c4.439,0,7.718-0.63,9.842-1.895
		c2.698-1.608,4.046-4.453,4.046-8.53c0-3.771-3.635-8.012-10.903-12.721c-0.478-0.306-0.363-0.623,0.344-0.947
		c2.562-1.168,5.805-2.269,9.727-3.303l10.071-2.469l0.861-6.461C51.036,52.597,42.857,55.574,37.865,58.197z M121.45,78.876h-1.722
		c-1.568,0-2.533-0.402-2.897-1.21c-0.172-0.384-0.258-1.51-0.258-3.372v-1.901l-4.161,1.413v2.133c0,1.96-1.216,2.938-3.644,2.938
		c-2.162,0-3.242-1.526-3.242-4.582v-1.901l-4.103,1.413v2.133c0,1.96-1.023,2.938-3.071,2.938c-1.071,0-2.315-0.776-3.729-2.334
		c-1.109-1.229-2.018-2.564-2.727-4.006l-5.05,4.732c1.894,2.545,2.841,5.126,2.841,7.749c0,2.717-0.966,4.896-2.898,6.542
		c-1.816,1.529-4.112,2.296-6.886,2.296c-2.601,0-4.648-0.65-6.14-1.951c-1.55-1.379-2.323-3.358-2.323-5.938
		c0-1.492,0.525-3.598,1.578-6.313l-4.477-1.578c-1.589,3.175-2.382,6.229-2.382,9.153c0,3.651,0.928,6.646,2.783,8.981
		c2.295,2.907,5.758,4.361,10.387,4.361s8.397-1.55,11.305-4.649c2.832-3.042,4.247-6.888,4.247-11.534
		c0.555,0.805,1.711,1.205,3.473,1.205c2.124,0,3.941-1.014,5.452-3.043c1.051,2.03,2.658,3.043,4.82,3.043
		c2.296,0,4.055-1.014,5.28-3.043c0.631,1.025,1.28,1.75,1.951,2.175c0.899,0.58,2.114,0.868,3.644,0.868h1.952v-6.717H121.45z
		 M101.026,67.62l2.06-3.004l3.851,2.516l3.035-3.978l-4.507-2.984l-2.205,2.986L99.443,60.6l-2.882,3.992L101.026,67.62z
		 M102.959,60.904l2.867-3.881l-4.147-2.794l-2.949,3.895L102.959,60.904z M136.915,78.876h-1.951c-2.372,0-3.559-1.844-3.559-5.53
		v-1.441l-4.792,1.585v2.304c0,2.057-1.473,3.083-4.418,3.083h-2.354v6.715h2.583c3.137,0,5.423-1.014,6.858-3.043
		c0.879,2.03,2.698,3.043,5.453,3.043h2.18V78.876L136.915,78.876z M128.422,59.135l-3.796,5.089l5.186,3.461l3.826-5.034
		L128.422,59.135z M139.039,57.796c-0.479,0.25-0.947,1.217-1.407,2.9c-0.402,1.436-0.622,2.576-0.66,3.418
		c0.421,0.939,2.554,2.919,6.398,5.944c3.482,2.737,5.222,4.862,5.222,6.375c0,1.63-3.261,2.44-9.784,2.44h-4.131v6.715h3.96
		c4.744,0,8.196-0.573,10.358-1.724c2.984-1.588,4.477-4.489,4.477-8.701c0-3.368-2.43-6.806-7.289-10.309
		c-1.148-0.823-2.353-1.675-3.615-2.557c-0.44-0.305-0.326-0.611,0.344-0.919c1.97-0.879,5.873-2.096,11.707-3.646
		c2.927-0.785,5.623-1.455,8.092-2.01l0.861-6.862C152.17,52.215,143.993,55.193,139.039,57.796L139.039,57.796z M172.667,50.212
		l-6.025,2.353l1.665,33.831l4.361-1.579L172.667,50.212L172.667,50.212z M190.917,72.162c-1.454-2.792-3.643-4.188-6.57-4.188
		c-1.991,0-3.635,1.291-4.936,3.874c-1.033,2.047-1.55,3.986-1.55,5.824c0,3.958,2.067,5.938,6.198,5.938
		c1.416,0,2.668-0.258,3.758-0.774c-0.249,1.512-1.741,3.434-4.476,5.769c-2.908,2.483-6.007,4.369-9.296,5.65l4.104,3.932
		c3.673-1.282,6.952-3.604,9.841-6.974c3.1-3.613,4.649-7.259,4.649-10.931C192.64,77.068,192.066,74.361,190.917,72.162
		L190.917,72.162z M184.892,78.073c-1.952,0-2.927-0.582-2.927-1.75c0-0.669,0.25-1.28,0.746-1.838
		c0.498-0.554,1.071-0.831,1.721-0.831c0.88,0,1.636,0.43,2.268,1.29c0.574,0.767,0.899,1.606,0.976,2.524
		C187.006,77.874,186.079,78.073,184.892,78.073z M237.708,78.876h-3.271c-3.08,0-5.979,0.584-8.695,1.749
		c-3.5,1.509-5.25,3.589-5.25,6.24c0,1.852,1.396,3.113,4.189,3.783c3.157,0.359,4.963,0.572,5.422,0.628
		c0.574,0.076,0.862,0.222,0.862,0.431c0,0.228-0.335,0.478-1.005,0.744c-2.2,0.897-5.547,1.346-10.043,1.346
		c-6.465,0-9.698-2.447-9.698-7.347c0-0.706,0.205-1.744,0.617-3.111s0.808-2.367,1.19-3l-4.477-1.576
		c-1.798,3.098-2.698,6.156-2.698,9.182c0,4.322,1.396,7.556,4.191,9.697c2.523,1.951,6.033,2.928,10.529,2.928
		c4.934,0,9.096-1.188,12.481-3.562c2.849-2.007,4.275-4.025,4.275-6.054c0-1.645-1.063-2.764-3.186-3.356
		c-2.257-0.324-4.293-0.631-6.111-0.918c-0.765-0.113-1.147-0.354-1.147-0.717c0-0.573,0.957-0.861,2.87-0.861
		c0.191,0,0.574,0.021,1.148,0.061c3.979,0.284,6.025,0.427,6.14,0.427h1.665L237.708,78.876L237.708,78.876z M265.454,70.9
		c-2.315,0-5.686-0.708-10.114-2.123c-4.429-1.416-7.628-2.124-9.598-2.124c-2.469,0-4.572,2.096-6.313,6.286
		c1.167,0.668,2.621,1.346,4.362,2.034c0.363-0.439,0.717-0.89,1.062-1.349c0.497-0.517,1.108-0.774,1.836-0.774
		c0.554,0,2.056,0.365,4.504,1.096c2.639,0.788,4.303,1.221,4.993,1.297c-3.884,1.425-5.997,2.193-6.34,2.306
		c-2.602,0.887-5.337,1.327-8.207,1.327h-5.567v6.715h5.653c3.979,0,7.392-0.758,10.244-2.274c3.597-2.015,6.074-3.425,7.432-4.231
		c2.621-1.517,5.173-2.273,7.661-2.273l0.775-6.025C267.051,70.861,266.257,70.9,265.454,70.9L265.454,70.9z M277.477,50.212
		l-6.025,2.353l1.665,33.831l4.361-1.579L277.477,50.212L277.477,50.212z M303.705,78.876h-1.579c-1.415,0-2.573-0.412-3.471-1.238
		c-0.767-0.711-1.836-2.199-3.214-4.472l-4.563,4.907c2.067,2.813,3.099,4.781,3.099,5.911c0,2.026-2.037,4.495-6.11,7.403
		c-3.025,2.159-5.97,3.853-8.839,5.078l4.88,3.355c3.69-1.435,6.847-3.385,9.468-5.854c3.157-2.965,4.878-6.142,5.165-9.526
		c0.689,0.766,1.789,1.147,3.3,1.147h1.865L303.705,78.876L303.705,78.876z M327.305,67.918c-1.405-1.283-3.199-1.925-5.379-1.925
		c-2.678,0-5.557,1.377-8.636,4.131V50.212l-6.112,2.356c0.69,6.779,1.033,12.485,1.033,17.119c0,3.005-0.163,5.227-0.489,6.662
		c-0.383,1.686-1.72,2.526-4.016,2.526h-1.635v6.715h9.756c4.743,0,8.73-0.977,11.965-2.932c3.749-2.261,5.623-5.449,5.623-9.568
		C329.413,70.927,328.711,69.202,327.305,67.918z M319.974,78.098c-2.143,0.519-4.255,0.776-6.339,0.776h-2.841
		c2.41-2.36,3.721-3.631,3.93-3.806c2.162-1.785,4.113-2.679,5.854-2.679c2.734,0,4.104,0.817,4.104,2.449
		C324.679,76.262,323.111,77.348,319.974,78.098L319.974,78.098z M374.397,78.876h-3.271c-3.081,0-5.979,0.584-8.694,1.749
		c-3.5,1.509-5.25,3.589-5.25,6.24c0,1.852,1.396,3.113,4.189,3.783c3.156,0.359,4.963,0.572,5.421,0.628
		c0.575,0.076,0.861,0.222,0.861,0.431c0,0.228-0.335,0.478-1.004,0.744c-2.199,0.897-5.549,1.346-10.044,1.346
		c-6.466,0-9.698-2.447-9.698-7.347c0-0.706,0.205-1.744,0.617-3.111c0.411-1.367,0.809-2.367,1.189-3l-4.476-1.576
		c-1.797,3.098-2.697,6.156-2.697,9.182c0,4.322,1.396,7.556,4.189,9.697c2.524,1.951,6.034,2.928,10.53,2.928
		c4.935,0,9.096-1.188,12.48-3.562c2.851-2.007,4.275-4.025,4.275-6.054c0-1.645-1.063-2.764-3.186-3.356
		c-2.257-0.324-4.294-0.631-6.111-0.918c-0.765-0.113-1.146-0.354-1.146-0.717c0-0.573,0.955-0.861,2.87-0.861
		c0.188,0,0.573,0.021,1.146,0.061c3.979,0.284,6.025,0.427,6.141,0.427h1.664L374.397,78.876L374.397,78.876z M413.622,78.876
		h-1.293c-2.027,0-3.137-0.183-3.326-0.547c0.898-1.551,1.348-3.314,1.348-5.29c0-2.167-0.707-3.911-2.123-5.234
		c-1.377-1.266-3.166-1.896-5.363-1.896c-3.848,0-8.715,3.661-14.606,10.986c-1.014,1.264-1.884,1.897-2.609,1.897
		c-1.13,0-1.867-0.434-2.21-1.298c-0.212-0.519-0.315-1.479-0.315-2.881V72.22l-4.505,1.267v1.99c0,2.266-1.234,3.399-3.702,3.399
		h-2.181v6.715h2.896c2.508,0,4.344-0.881,5.51-2.64c1.13,1.759,3.32,2.64,6.571,2.64h6.627c4.725,0,8.35-1.063,10.873-3.185
		c1.59,2.121,3.828,3.185,6.717,3.185h1.693v-6.716H413.622z M400.94,78.034c-2.105,0.505-4.203,0.758-6.287,0.758h-2.84
		c2.049-2.115,3.34-3.395,3.877-3.841c2.121-1.763,4.063-2.645,5.82-2.645c2.736,0,4.105,0.822,4.105,2.47
		C405.616,76.194,404.055,77.28,400.94,78.034L400.94,78.034z M452.844,78.876h-1.295c-2.025,0-3.135-0.183-3.324-0.547
		c0.898-1.551,1.348-3.314,1.348-5.29c0-2.167-0.705-3.911-2.123-5.234c-1.377-1.266-3.166-1.896-5.365-1.896
		c-3.846,0-8.713,3.661-14.604,10.986c-1.016,1.264-1.885,1.897-2.609,1.897c-1.129,0-1.865-0.434-2.211-1.298
		c-0.211-0.519-0.314-1.479-0.314-2.881V72.22l-4.506,1.267v1.99c0,2.266-1.232,3.399-3.703,3.399h-2.178v6.715h2.895
		c2.508,0,4.344-0.881,5.51-2.64c1.131,1.759,3.318,2.64,6.57,2.64h6.633c4.721,0,8.346-1.063,10.869-3.185
		c1.59,2.121,3.826,3.185,6.717,3.185h1.693v-6.716H452.844z M440.163,78.034c-2.107,0.505-4.201,0.758-6.285,0.758h-2.84
		c2.047-2.115,3.34-3.395,3.873-3.841c2.123-1.763,4.063-2.645,5.826-2.645c2.732,0,4.102,0.822,4.102,2.47
		C444.838,76.194,443.28,77.28,440.163,78.034z M487.506,78.876h-5.568c-1.684,0-2.869-0.308-3.559-0.926
		c-0.363-0.327-0.643-0.896-0.834-1.707c1.686-0.521,3.461-0.782,5.34-0.782l0.773-6.513c-0.994,0.115-2.059,0.173-3.186,0.173
		c-2.201,0-5.447-0.506-9.738-1.521c-4.297-1.014-7.533-1.521-9.717-1.521c-2.371,0-4.477,2.287-6.313,6.86
		c1.072,0.609,2.516,1.291,4.336,2.034c1.01-1.566,1.93-2.352,2.752-2.352c0.324,0,1.51,0.183,3.559,0.547
		c2.258,0.402,3.762,0.644,4.504,0.72c-2.83,1.518-4.791,2.576-5.883,3.172c-2.313,1.209-4.932,1.813-7.859,1.813h-4.936v6.715H457
		c2.469,0,4.734-0.48,6.801-1.438c1.396-0.653,3.1-1.758,5.109-3.313c2.332-1.803,4.063-3.021,5.193-3.655
		c0.094,5.604,2.389,8.407,6.885,8.407h6.516L487.506,78.876L487.506,78.876z M471.667,53.483l-3.797,5.09l5.186,3.461l3.828-5.035
		L471.667,53.483z M493.959,66.768l-3.787,5.464l1.98,2.532c0.881,1.131,1.32,2.004,1.32,2.617c0,0.996-1.006,1.494-3.014,1.494
		h-4.59v6.715h1.719c3.137,0,5.598-0.766,7.375-2.3c1.914-1.646,2.869-4.013,2.869-7.098
		C497.834,72.497,496.542,69.355,493.959,66.768z M496.6,54l-2.297,3.213l-4.102-2.84l-3.152,4.27l4.908,3.351l2.268-3.212
		l3.938,2.781l3.154-4.273L496.6,54L496.6,54z M568.641,78.876h-1.723c-1.566,0-2.533-0.402-2.898-1.21
		c-0.17-0.384-0.26-1.51-0.26-3.372v-1.901l-4.16,1.413v2.133c0,1.96-1.213,2.938-3.645,2.938c-2.158,0-3.24-1.526-3.24-4.582
		v-1.901l-4.104,1.413v2.133c0,1.96-1.023,2.938-3.07,2.938c-1.068,0-2.313-0.776-3.727-2.334c-1.111-1.229-2.02-2.564-2.727-4.006
		l-5.051,4.732c1.893,2.545,2.838,5.126,2.838,7.749c0,2.717-0.963,4.896-2.895,6.542c-1.818,1.529-4.115,2.296-6.887,2.296
		c-2.602,0-4.648-0.65-6.139-1.951c-1.551-1.379-2.326-3.358-2.326-5.938c0-1.492,0.525-3.598,1.578-6.313l-4.477-1.578
		c-1.584,3.175-2.379,6.229-2.379,9.153c0,3.651,0.926,6.646,2.781,8.981c2.295,2.907,5.756,4.361,10.389,4.361
		c4.629,0,8.395-1.55,11.303-4.649c2.832-3.042,4.248-6.888,4.248-11.534c0.553,0.805,1.711,1.205,3.471,1.205
		c2.121,0,3.939-1.014,5.453-3.043c1.051,2.03,2.658,3.043,4.82,3.043c2.297,0,4.055-1.014,5.279-3.043
		c0.627,1.025,1.281,1.75,1.949,2.175c0.9,0.58,2.115,0.868,3.646,0.868h1.949V78.876L568.641,78.876z M548.215,67.62l2.063-3.004
		l3.852,2.516l3.035-3.978l-4.508-2.984l-2.207,2.986l-3.814-2.555l-2.883,3.992L548.215,67.62L548.215,67.62z M550.153,60.904
		l2.863-3.881l-4.146-2.794l-2.949,3.895L550.153,60.904z M575.155,66.768l-3.787,5.464l1.979,2.532
		c0.879,1.131,1.32,2.004,1.32,2.617c0,0.996-1.006,1.494-3.014,1.494h-4.59v6.715h1.719c3.137,0,5.598-0.766,7.375-2.3
		c1.912-1.646,2.871-4.013,2.871-7.098C579.028,72.497,577.737,69.355,575.155,66.768z M577.934,89.384l-2.266,3.215l-4.131-2.811
		l-3.139,4.248l4.918,3.349l2.295-3.214l3.902,2.782l3.158-4.274L577.934,89.384L577.934,89.384z M598.969,78.876h-2.15
		c-2.814,0-4.219-1.76-4.219-5.283V50.212l-5.854,2.354l0.631,20.218c0.133,4.23,0.65,7.188,1.549,8.872
		c1.396,2.624,4.092,3.936,8.092,3.936h1.951V78.876L598.969,78.876z M623.905,78.876h-1.809c-1.377,0-2.457-0.288-3.24-0.862
		l-3.816-4.119c-1.664-1.806-3.203-2.708-4.619-2.708c-1.318,0-2.773,0.949-4.363,2.851c-1.488,1.825-2.514,3.093-3.068,3.804
		c-0.707,0.69-2.113,1.035-4.217,1.035h-1.492v6.715h1.92c1.934,0,3.723-0.671,5.369-2.008c0.668,0.593,1.881,1.337,3.643,2.236
		c2.182,1.109,3.893,1.666,5.137,1.666c1.355,0,2.369-1.504,3.039-4.505c0.479,0.773,1.311,1.411,2.498,1.913
		c1.092,0.465,2.133,0.696,3.127,0.696h1.893V78.876L623.905,78.876z M611.594,81.459c-1.645-0.497-3.061-1.292-4.246-2.382
		c0.209-0.517,0.584-1.062,1.119-1.636c0.613-0.631,1.158-0.945,1.637-0.945c0.705,0,1.377,0.554,2.006,1.663
		c0.557,0.975,0.834,1.864,0.834,2.671C612.944,81.518,612.497,81.726,611.594,81.459L611.594,81.459z M641.004,69.838
		c-2.889-2.945-6.227-5.67-10.012-8.178l-2.84,6.065l1.262,0.804c-2.813,2.396-4.219,4.848-4.219,7.356
		c0,1.553,0.344,2.55,1.031,2.989h-3.959v6.715h3.676c4.131,0,6.713-0.354,7.746-1.063c1.836,0.9,3.154,1.541,3.961,1.922
		c1.68,0.785,2.936,1.178,3.758,1.178c3.539,0,5.309-2.659,5.309-7.977C646.715,76.992,644.813,73.722,641.004,69.838
		L641.004,69.838z M641.495,82.492c-0.326,0-1.025-0.307-2.096-0.919c-1.07-0.611-1.713-1.071-1.922-1.377
		c0.533-0.285,0.992-0.862,1.377-1.722c0.361-0.783,0.545-1.512,0.545-2.182v-0.515c0.645,0.496,1.309,1.204,1.988,2.123
		c0.781,1.032,1.189,1.873,1.227,2.523C642.69,81.803,642.315,82.492,641.495,82.492z M634.409,76.738
		c-0.578,0.604-1.303,0.904-2.184,0.904c-0.725,0-1.379-0.271-1.951-0.818c-0.576-0.543-0.861-1.18-0.861-1.908
		c0-0.632,0.359-1.31,1.076-2.036c0.717-0.728,1.391-1.092,2.021-1.092c0.67,0,1.297,0.287,1.881,0.861
		c0.582,0.576,0.873,1.196,0.873,1.866C635.266,75.397,634.981,76.135,634.409,76.738z M18.191,140.012l-4.593-7.339
		c2.268-0.362,4.452-2.184,4.452-5.487c0-3.473-2.437-5.854-6.133-5.854H3.712v18.681h3.277v-6.975h3.276l4.116,6.975H18.191z
		 M11.5,130.154H6.99v-5.938h4.51c1.848,0,3.191,1.15,3.191,2.941C14.69,128.979,13.347,130.154,11.5,130.154z M41.96,140.012
		v-2.887h-9.521v-5.208h9.325v-2.885h-9.325v-4.818h9.521v-2.883H29.163v18.681H41.96L41.96,140.012z M59.567,140.347
		c5.013,0,7.226-2.688,7.226-5.798c0-6.942-10.865-4.785-10.865-8.287c0-1.372,1.232-2.324,3.137-2.324
		c1.96,0,3.948,0.671,5.433,2.154l1.848-2.436c-1.708-1.682-4.088-2.633-6.973-2.633c-4.116,0-6.805,2.38-6.805,5.486
		c0,6.86,10.865,4.427,10.865,8.349c0,1.26-1.036,2.575-3.725,2.575c-2.604,0-4.648-1.232-5.909-2.605l-1.848,2.549
		C53.63,139.116,56.125,140.347,59.567,140.347z M80.9,140.012v-7.003h4.957c3.893,0,6.077-2.659,6.077-5.823
		c0-3.191-2.156-5.854-6.077-5.854h-8.233v18.681H80.9z M85.41,130.125H80.9v-5.909h4.509c1.848,0,3.164,1.179,3.164,2.972
		C88.573,128.949,87.256,130.125,85.41,130.125z M111.25,140.347c5.572,0,9.549-4.09,9.549-9.659c0-5.574-3.977-9.662-9.549-9.662
		c-5.601,0-9.549,4.088-9.549,9.662C101.702,136.259,105.649,140.347,111.25,140.347z M111.25,137.436
		c-3.781,0-6.188-2.913-6.188-6.748c0-3.865,2.407-6.75,6.188-6.75c3.753,0,6.189,2.885,6.189,6.75
		C117.439,134.522,115.002,137.436,111.25,137.436z M147.957,140.012v-18.681h-3.277v12.938l-9.549-12.938h-3.36v18.681h3.275
		v-13.357l9.746,13.357H147.957z M166.179,140.347c5.013,0,7.225-2.688,7.225-5.798c0-6.942-10.866-4.785-10.866-8.287
		c0-1.372,1.232-2.324,3.137-2.324c1.96,0,3.948,0.671,5.434,2.154l1.848-2.436c-1.708-1.682-4.089-2.633-6.973-2.633
		c-4.116,0-6.805,2.38-6.805,5.486c0,6.86,10.865,4.427,10.865,8.349c0,1.26-1.036,2.575-3.725,2.575
		c-2.604,0-4.648-1.232-5.908-2.605l-1.849,2.549C160.243,139.116,162.733,140.347,166.179,140.347L166.179,140.347z
		 M187.51,140.012v-18.681h-3.276v18.681H187.51z M208.817,140.012l7.337-18.681h-3.725l-5.656,15.094l-5.656-15.094h-3.726
		l7.337,18.681H208.817L208.817,140.012z M238.801,140.012v-2.887h-9.521v-5.208h9.325v-2.885h-9.325v-4.818h9.521v-2.883h-12.797
		v18.681H238.801z M282.841,140.012l5.349-18.681h-3.668l-3.641,14.366l-3.864-14.366h-2.604l-3.865,14.366l-3.64-14.366h-3.641
		l5.32,18.681h3.501l3.64-13.809l3.613,13.809H282.841L282.841,140.012z M310.978,140.012v-2.887h-9.521v-5.208h9.325v-2.885h-9.325
		v-4.818h9.521v-2.883H298.18v18.681H310.978z M331.609,140.012c3.528,0,5.434-2.157,5.434-5.068c0-2.271-1.597-4.256-3.611-4.565
		c1.734-0.361,3.247-1.961,3.247-4.282c0-2.634-1.876-4.763-5.318-4.763h-9.187v18.681L331.609,140.012L331.609,140.012z
		 M330.714,129.034h-5.266v-4.818h5.266c1.651,0,2.604,1.037,2.604,2.41C333.318,128.055,332.366,129.034,330.714,129.034z
		 M330.854,137.127h-5.403v-5.208h5.403c1.849,0,2.828,1.204,2.828,2.604C333.682,136.146,332.617,137.127,330.854,137.127z
		 M370.217,140.012c5.823,0,9.744-3.838,9.744-9.354c0-5.461-3.921-9.324-9.771-9.324h-6.945v18.681L370.217,140.012
		L370.217,140.012z M370.188,137.127h-3.669v-12.911h3.697c4.145,0,6.384,2.858,6.384,6.441
		C376.601,134.215,374.249,137.127,370.188,137.127z M403.758,140.012v-2.887h-9.523v-5.208h9.326v-2.885h-9.326v-4.818h9.523
		v-2.883h-12.801v18.681H403.758z M421.366,140.347c5.014,0,7.225-2.688,7.225-5.798c0-6.942-10.863-4.785-10.863-8.287
		c0-1.372,1.23-2.324,3.137-2.324c1.959,0,3.949,0.671,5.434,2.154l1.848-2.436c-1.707-1.682-4.088-2.633-6.973-2.633
		c-4.115,0-6.805,2.38-6.805,5.486c0,6.86,10.865,4.427,10.865,8.349c0,1.26-1.037,2.575-3.729,2.575
		c-2.602,0-4.645-1.232-5.906-2.605l-1.852,2.549C415.428,139.116,417.922,140.347,421.366,140.347z M442.698,140.012v-18.681
		h-3.275v18.681H442.698z M463.499,140.375c3.223,0,5.854-1.37,7.676-3.416v-6.973h-8.85v2.885h5.602v2.883
		c-0.84,0.813-2.52,1.684-4.428,1.684c-3.693,0-6.438-2.856-6.438-6.748c0-3.948,2.744-6.75,6.438-6.75
		c2.074,0,3.84,1.094,4.848,2.492l2.66-1.54c-1.482-2.131-3.863-3.864-7.508-3.864c-5.43,0-9.801,3.779-9.801,9.662
		C453.698,136.538,458.069,140.375,463.499,140.375L463.499,140.375z M498.61,140.012v-18.681h-3.277v12.938l-9.549-12.938h-3.359
		v18.681h3.275v-13.357l9.744,13.357H498.61L498.61,140.012z M534.471,140.347c3.752,0,6.076-1.987,7.504-4.229l-2.799-1.401
		c-0.896,1.54-2.717,2.719-4.705,2.719c-3.695,0-6.441-2.856-6.441-6.748c0-3.948,2.746-6.75,6.441-6.75
		c1.988,0,3.809,1.146,4.705,2.717l2.771-1.458c-1.373-2.239-3.727-4.171-7.479-4.171c-5.52,0-9.803,3.893-9.803,9.662
		C524.67,136.427,528.954,140.347,534.471,140.347L534.471,140.347z M561.151,140.347c5.574,0,9.549-4.09,9.549-9.659
		c0-5.574-3.975-9.662-9.549-9.662c-5.6,0-9.547,4.088-9.547,9.662C551.604,136.259,555.551,140.347,561.151,140.347z
		 M561.151,137.436c-3.779,0-6.188-2.913-6.188-6.748c0-3.865,2.408-6.75,6.188-6.75c3.754,0,6.189,2.885,6.189,6.75
		C567.34,134.522,564.905,137.436,561.151,137.436z M597.856,140.012v-18.681h-3.275v12.938l-9.551-12.938h-3.359v18.681h3.277
		v-13.357l9.744,13.357H597.856z M612.944,140.012v-8.095h9.326v-2.885h-9.326v-4.818h9.521v-2.883h-12.799v18.681H612.944z
		 M646.065,140.012v-2.887h-9.521v-5.208h9.326v-2.885h-9.326v-4.818h9.521v-2.883h-12.797v18.681H646.065z M671.739,140.012
		l-4.594-7.339c2.27-0.362,4.455-2.184,4.455-5.487c0-3.473-2.438-5.854-6.135-5.854h-8.203v18.681h3.273v-6.975h3.277l4.115,6.975
		H671.739L671.739,140.012z M665.043,130.154h-4.508v-5.938h4.508c1.85,0,3.195,1.15,3.195,2.941
		C668.239,128.979,666.893,130.154,665.043,130.154z M695.508,140.012v-2.887h-9.521v-5.208h9.326v-2.885h-9.326v-4.818h9.521
		v-2.883h-12.801v18.681H695.508z M722.889,140.012v-18.681h-3.275v12.938l-9.551-12.938h-3.359v18.681h3.273v-13.357l9.748,13.357
		H722.889L722.889,140.012z M743.688,140.347c3.752,0,6.076-1.987,7.504-4.229l-2.799-1.4c-0.896,1.539-2.719,2.718-4.705,2.718
		c-3.695,0-6.441-2.856-6.441-6.748c0-3.948,2.746-6.75,6.441-6.75c1.986,0,3.809,1.146,4.705,2.717l2.771-1.458
		c-1.373-2.239-3.725-4.171-7.48-4.171c-5.518,0-9.801,3.893-9.801,9.662C733.887,136.427,738.17,140.347,743.688,140.347
		L743.688,140.347z M774.43,140.012v-2.887h-9.523v-5.208h9.326v-2.885h-9.326v-4.818h9.523v-2.883h-12.799v18.681H774.43z
		 M692.022,84.91h-1.547c-1.934,0-3.223-0.401-3.865-1.207c0,4.606-1.428,8.431-4.275,11.477c-2.852,3.044-6.564,4.598-11.139,4.661
		c-4.123,0.064-7.346-1.109-9.664-3.525c-2.32-2.417-3.48-5.67-3.48-9.762c0-2.964,0.773-6.008,2.32-9.133l4.494,1.596
		c-1.064,2.802-1.596,4.896-1.596,6.28c0,2.48,0.764,4.413,2.295,5.8c1.529,1.385,3.566,2.076,6.111,2.076
		c2.803,0,5.09-0.771,6.863-2.318c1.898-1.611,2.865-3.785,2.896-6.523c0.033-2.607-0.9-5.186-2.803-7.729l5.025-4.64
		c0.998,2.063,1.707,3.382,2.127,3.962c1.096,1.482,2.367,2.224,3.816,2.224h2.416v6.763H692.022z M675.979,67.998l-3.865,5.073
		l-5.123-3.479l3.818-5.024L675.979,67.998z M707.29,84.91h-2.174c-2.674,0-4.479-1.014-5.412-3.044
		c-1.418,2.03-3.689,3.044-6.814,3.044h-2.561v-6.765h2.367c2.898,0,4.35-0.997,4.35-2.996V72.83l4.783-1.546v1.449
		c0,3.607,1.176,5.412,3.527,5.412h1.934V84.91L707.29,84.91z M705.838,91.965l-3.092,4.204l-3.963-2.706l-2.271,3.188l-4.881-3.333
		l3.143-4.253l4.105,2.804l2.271-3.238L705.838,91.965z M726.762,78.049c0.031,1.321-0.34,2.626-1.111,3.914
		c-0.838,1.482-1.74,2.224-2.705,2.224c-1.516,0-3.174-0.418-4.979-1.257c-1.191-0.515-2.223-1.144-3.092-1.885
		c-1.965,2.577-4.623,3.865-7.973,3.865h-1.258v-6.765h1.016c3.061,0,5.121-0.901,6.186-2.706c0.74-1.256,1.596-2.722,2.561-4.397
		c1.58-2.158,3.316-3.236,5.219-3.236c2.287,0,3.963,1.353,5.025,4.059C726.36,73.733,726.731,75.794,726.762,78.049z
		 M722.897,77.372c0-1.063-0.338-2.037-1.016-2.923c-0.676-0.886-1.338-1.329-1.98-1.329c-1.127,0-1.949,0.982-2.465,2.947
		c1.127,0.806,2.48,1.435,4.061,1.885C722.43,78.21,722.897,78.016,722.897,77.372z M747.782,79.643
		c0,3.512-1.516,7.07-4.543,10.679c-2.867,3.479-6.168,5.847-9.904,7.104l-4.061-3.913c3.094-1.13,6.17-2.996,9.229-5.605
		c2.707-2.319,4.205-4.235,4.494-5.75c-1.063,0.516-2.336,0.772-3.816,0.772c-4.059,0-6.088-1.98-6.088-5.943
		c0-1.867,0.498-3.784,1.498-5.75c1.287-2.544,2.932-3.833,4.928-3.866c2.9-0.032,5.074,1.354,6.523,4.156
		C747.202,73.748,747.782,76.454,747.782,79.643z M742.852,76.842c-0.162-1.191-0.58-2.143-1.256-2.852
		c-0.645-0.611-1.307-0.918-1.98-0.918c-0.613,0-1.17,0.259-1.668,0.773c-0.5,0.516-0.748,1.128-0.748,1.836
		c0,1.16,0.965,1.739,2.896,1.739C741.258,77.421,742.176,77.227,742.852,76.842z M772.86,75.681c0,3.222-1.08,5.718-3.238,7.489
		c-1.934,1.579-4.543,2.368-7.828,2.368c-4.316,0-7.426-1.209-9.326-3.624l2.754-5.073c1.645,1.386,3.432,2.077,5.365,2.077
		c2.352,0,3.961-0.097,4.832-0.291c2.094-0.418,3.141-1.366,3.141-2.85c0-0.998-0.807-2.319-2.416-3.962
		c-1.771-1.836-3.932-3.432-6.475-4.784l2.607-6.426C769.331,64.922,772.86,69.948,772.86,75.681z"/>
	<path opacity="0.6" fill="#FFFFFF" enable-background="new    " d="M3.681,113.025v-2H774.68v2H3.681"/>
	<path opacity="0.6" fill="#FFFFFF" enable-background="new    " d="M3.681,151.025v-2H774.68v2H3.681"/>
</g>
<g>
	<path fill-rule="evenodd" clip-rule="evenodd" fill="#FFFFFF" d="M223.819,21.98c0,3.895,3.17,7.064,7.066,7.064h132.197
		c3.897,0,7.065-3.169,7.065-7.064v-6.673H223.819V21.98L223.819,21.98z M353.863-62.443c0-3.248-2.64-5.891-5.892-5.891l-101.982,0
		c-3.242,0-5.888,2.644-5.888,5.892V9.512L353.86,9.513v-71.956H353.863L353.863-62.443z M342.499-56.967v55.113L251.47-1.855
		v-55.112H342.499L342.499-56.967z M422.226,6.51l-0.52-2.375h-29.794l-0.516,2.375c-1.388,6.375-4.315,12.478-8.468,17.634
		l-3.946,4.901h55.665l-3.956-4.901C426.541,18.994,423.616,12.896,422.226,6.51L422.226,6.51z M548.496-24.696h-21.504
		c-2.838,0-5.142,2.31-5.142,5.144v43.45c0,2.833,2.306,5.141,5.142,5.141h21.504c2.833,0,5.139-2.308,5.139-5.141v-43.443
		C553.634-22.385,551.327-24.696,548.496-24.696L548.496-24.696L548.496-24.696z M533.433-21.388h8.621
		c0.623,0,1.127,0.503,1.127,1.129s-0.504,1.121-1.127,1.121h-8.621c-0.625,0-1.127-0.494-1.127-1.121
		C532.306-20.885,532.808-21.388,533.433-21.388L533.433-21.388z M537.743,26.002c-1.137,0-2.057-0.927-2.057-2.061
		c0-1.134,0.918-2.061,2.057-2.061c1.143,0,2.059,0.925,2.059,2.061C539.801,25.075,538.885,26.002,537.743,26.002L537.743,26.002z
		 M549.217,18.912h-22.95v-34.86h22.95V18.912L549.217,18.912z M508.834-64.527h-62.093c-3.248,0-5.891,2.644-5.891,5.893v81.792
		c0,3.246,2.643,5.887,5.891,5.887h62.093c3.245,0,5.893-2.641,5.893-5.887v-81.792C514.719-61.884,512.078-64.527,508.834-64.527
		L508.834-64.527z M477.788,25.812c-1.334,0-2.423-1.084-2.423-2.429c0-1.334,1.084-2.421,2.423-2.421
		c1.337,0,2.426,1.082,2.426,2.421C480.21,24.726,479.125,25.812,477.788,25.812L477.788,25.812z M503.355,17.674h-51.132v-70.833
		h51.124v70.833L503.355,17.674L503.355,17.674L503.355,17.674z M336.066-105.532h144.456v35.206h11.37v-40.683
		c0-3.25-2.641-5.895-5.897-5.895H330.588c-3.248,0-5.888,2.646-5.888,5.895v36.878h11.365V-105.532L336.066-105.532
		L336.066-105.532z"/>
	<polygon fill-rule="evenodd" clip-rule="evenodd" fill="#FFFFFF" points="359.663,-1.658 435.054,-1.658 435.054,-13.026 
		359.663,-13.026 359.663,-1.658 	"/>
</g>
</svg>
