<?xml version="1.0" encoding="utf-8"?>
<!-- Generator: Adobe Illustrator 17.0.0, SVG Export Plug-In . SVG Version: 6.00 Build 0)  -->
<!DOCTYPE svg PUBLIC "-//W3C//DTD SVG 1.1//EN" "http://www.w3.org/Graphics/SVG/1.1/DTD/svg11.dtd">
<svg version="1.1" id="Layer_1" xmlns="http://www.w3.org/2000/svg" xmlns:xlink="http://www.w3.org/1999/xlink" x="0px" y="0px"
	 width="300px" height="300px" viewBox="0 0 300 300" enable-background="new 0 0 300 300" xml:space="preserve">
<symbol  id="Aparat_Logo_Cycle" viewBox="-202.848 -201.617 405.697 403.235">
	<path fill="#E61F5D" d="M177.567,97.534c-19.87,35.79-50.92,65.22-87.67,83.239c-33.812,16.729-72.342,23.561-109.86,19.871
		c-29.65-2.853-58.641-12.34-84.21-27.61c-36.972-21.95-66.67-55.96-83.2-95.671c-14.51-34.511-18.898-73.119-12.82-110.039
		c6.95-43.223,28.771-83.78,60.69-113.7c27.64-26.11,62.771-44.21,100.108-51.439c40.161-7.881,82.7-3.471,120.262,12.859
		c36.148,15.57,67.53,41.95,89.1,74.87c20.011,30.34,31.471,66.229,32.73,102.551C204.127,28.904,195.387,65.704,177.567,97.534z
		 M144.978,55.395c-1.971-17.239-12.311-33.211-27.159-42.148c-14.302-8.87-32.512-10.971-48.472-5.65
		c-17.26,5.49-31.42,19.643-36.96,36.882c-5.488,16.351-2.898,35.108,6.682,49.431c9.028,13.77,24.198,23.27,40.52,25.43
		c17.53,2.471,36.04-3.6,48.601-16.1C140.757,91.014,147.247,72.824,144.978,55.395z M-134.053-28.035
		c9.22,12.449,23.619,20.869,38.988,22.852c21.32,2.988,43.82-7.03,55.682-25.03c11.311-16.38,12.97-38.74,4.3-56.642
		c-7.53-16.101-22.92-28.148-40.3-31.75c-15.689-3.398-32.721,0.109-45.771,9.459c-12.13,8.563-20.72,21.973-23.33,36.593
		C-147.373-57.126-143.482-40.586-134.053-28.035z M-4.383,68.193c-7-17.261-22.92-30.449-41.12-34.319
		c-16.3-3.649-34.09,0.21-47.392,10.31c-12.14,9.08-20.459,23.11-22.469,38.15c-2.031,14.51,1.811,29.73,10.479,41.54
		c8.51,11.75,21.6,20.03,35.84,22.771c20.86,4.24,43.66-4.148,56.67-21.01C0.407,109.773,3.577,86.943-4.383,68.193z M-26.493-5.586
		c-2.63,13.58,7.78,27.66,21.41,29.438c13.45,2.451,27.51-7.64,29.39-21.188c2.551-13.37-7.54-27.271-20.93-29.279
		C-10.183-29.396-24.564-19.275-26.493-5.586z M9.106-59.156c8.78,13.801,23.681,23.461,39.841,25.92
		c17.64,2.853,36.43-3.01,49.25-15.479c12.738-12.12,19.45-30.312,17.318-47.812c-1.868-17.729-12.618-34.181-28.028-43.118
		c-15.17-9.103-34.54-10.563-50.94-3.98c-15.96,6.18-28.75,19.87-33.86,36.21C-2.493-91.436-0.022-73.236,9.106-59.156z"/>
</symbol>
<g id="Aparat_Logo">
	<path fill="#231F20" d="M62.855,13.982C71.889,6.943,83.61,3.456,95.022,4.493c5.305,0.381,10.368,2.09,15.494,3.374
		c6.52,1.703,13.02,3.476,19.553,5.134c-11.064,1.715-22.001,4.386-32.408,8.539C75.205,30.343,55.14,45.066,39.936,63.79
		c2.28-8.634,4.597-17.255,6.906-25.882C49.393,28.47,55.108,19.944,62.855,13.982z"/>
	<path fill="#231F20" d="M235.306,40.858c7.476,1.854,14.898,3.917,22.355,5.854c4.55,1.247,9.222,2.203,13.544,4.158
		c10.229,4.457,18.68,12.824,23.229,23.015c4.323,9.476,5.184,20.463,2.443,30.508c-2.69,9.957-5.279,19.938-8.026,29.883
		c-2.83-23.439-11.887-46.061-25.876-65.069C255.16,58.503,245.736,49.022,235.306,40.858z"/>
	<path fill="#231F20" d="M4.579,196.077c2.013-7.456,3.943-14.933,6.014-22.376c4.506,28.786,18.578,55.891,39.229,76.404
		c3.963,3.995,8.248,7.646,12.603,11.204c-8.602-2.172-17.16-4.509-25.742-6.748c-7.918-2.032-15.28-6.203-21.04-12.008
		c-8.228-8.196-13.127-19.635-13.304-31.256C2.199,206.135,3.124,201.014,4.579,196.077z"/>
	<path fill="#231F20" d="M230.032,265.942c12.146-8.455,22.92-18.861,31.863-30.653c-1.942,7.329-3.911,14.658-5.867,21.987
		c-1.545,5.602-2.722,11.387-5.488,16.558c-6.463,12.768-19.286,21.982-33.402,24.218c-6.735,1.108-13.69,0.651-20.255-1.201
		c-8.868-2.418-17.816-4.569-26.642-7.141C191.644,286.496,212.297,278.355,230.032,265.942z"/>
</g>
<use xlink:href="#Aparat_Logo_Cycle"  width="405.697" height="403.235" id="XMLID_1_" x="-202.848" y="-201.617" transform="matrix(0.633 0 0 -0.633 150.3936 151.4803)" overflow="visible"/>
</svg>
