<?xml version="1.0" encoding="utf-8"?>
<!-- Generator: Adobe Illustrator 17.0.0, SVG Export Plug-In . SVG Version: 6.00 Build 0)  -->
<!DOCTYPE svg PUBLIC "-//W3C//DTD SVG 1.1//EN" "http://www.w3.org/Graphics/SVG/1.1/DTD/svg11.dtd">
<svg version="1.1" xmlns="http://www.w3.org/2000/svg" xmlns:xlink="http://www.w3.org/1999/xlink" x="0px" y="0px"
	 width="333.169px" height="297.991px" viewBox="0 0 333.169 297.991" enable-background="new 0 0 333.169 297.991"
	 xml:space="preserve">
<g id="Capa_1">
	<g>
		<g>
			<g>
				<path d="M31.441,191.382c1.623,5.682,2.516,18.075,2.516,37.097c0,16.316,0.839,28.303,2.598,35.906
					c1.759,7.549,5.196,14.017,10.336,19.157c5.114,5.141,11.391,8.875,18.832,11.121c7.469,2.219,18.184,3.328,32.119,3.328h8.253
					v-37.205c-11.121,0-18.345-0.704-21.701-2.11c-3.328-1.434-5.818-3.409-7.469-6.143c-1.623-2.706-2.435-7.413-2.435-14.206
					c0-4.817-0.433-15.775-1.244-32.984c-0.622-11.256-1.976-20.24-4.059-26.949c-2.056-6.765-5.033-12.474-8.929-17.181
					c-3.87-4.735-8.848-8.821-14.936-12.312c6.9-4.492,12.013-8.739,15.396-12.934c3.355-4.086,6.115-9.335,8.28-15.694
					c2.137-6.359,3.491-14.665,4.032-24.893c0.919-18.128,1.434-30.468,1.434-36.988c0-6.386,0.785-10.932,2.327-13.556
					c1.569-2.598,3.95-4.572,7.198-5.898c3.246-1.272,10.633-1.922,22.106-1.922V0h-8.253C84.286,0,74.356,0.947,68.078,2.814
					C58.77,5.601,51.681,9.39,46.783,14.179c-4.871,4.817-8.226,11.175-10.093,19.103c-1.84,7.874-2.733,21.863-2.733,41.831
					c0,12.366-0.46,20.916-1.298,25.894c-1.029,6.602-2.949,12.095-5.709,16.505c-2.814,4.41-6.061,7.523-9.93,9.389
					c-3.788,1.813-9.443,2.977-17.02,3.436v37.232c9.525,0.487,16.559,2.544,21.187,6.143
					C25.76,177.231,29.196,183.103,31.441,191.382z"/>
				<path d="M265.089,295.15c9.363-2.814,16.559-6.548,21.458-11.391c4.871-4.789,8.199-11.202,9.957-19.157
					c1.759-7.982,2.733-21.971,2.733-42.021c0-12.23,0.46-20.834,1.272-25.787c1.109-6.602,3.058-12.095,5.844-16.479
					c2.733-4.383,5.98-7.549,9.796-9.389s9.471-2.977,17.02-3.382h-0.054v-37.205c-9.552-0.568-16.533-2.598-21.241-6.169
					c-4.6-3.545-8.037-9.497-10.364-17.696c-1.569-5.79-2.327-18.128-2.327-37.016c0-16.343-0.893-28.275-2.706-35.825
					c-1.786-7.658-5.222-14.043-10.282-19.265c-5.087-5.196-11.337-8.848-18.778-11.04c-7.495-2.165-18.21-3.274-32.145-3.274
					h-8.225v36.962c11.716,0,19.239,0.704,22.566,2.111c3.382,1.38,5.709,3.355,6.981,5.926c1.326,2.57,1.948,7.738,2.056,15.504
					c0.568,24.596,1.488,40.506,2.598,47.757c1.732,10.498,5.087,19.185,9.876,25.948c3.545,4.817,9.092,9.606,16.749,14.585
					c-5.898,3.382-10.687,7.333-14.476,11.851c-3.815,4.464-6.819,9.985-9.038,16.397c-2.273,6.494-3.707,15.153-4.167,25.84
					c-0.839,17.777-1.38,29.872-1.38,36.15c-0.108,6.305-0.839,10.769-2.489,13.421c-1.651,2.679-4.113,4.654-7.495,6.088
					c-3.409,1.407-10.687,2.056-21.781,2.056v37.205h8.307C248.827,297.937,258.785,296.964,265.089,295.15z"/>
			</g>
		</g>
	</g>
</g>
<g id="Layer_2">
	<path fill="#336464" d="M143.03,257.462l8.442,18.021c9.308-3.328,17.02-7.928,23.081-13.692
		c6.061-5.764,10.147-12.312,12.312-19.59c2.191-7.333,3.274-17.317,3.274-29.872v-31.09h-43.591v43.564h21.025
		c-0.162,8.578-2.165,15.423-5.844,20.672C158.02,250.535,151.77,254.593,143.03,257.462z"/>
	<rect x="146.548" y="60.046" fill="#336464" width="43.591" height="43.618"/>
</g>
</svg>
